<svg id="Layer_1" data-name="Layer 1" xmlns="http://www.w3.org/2000/svg" viewBox="0 0 1920 1080"><defs><style>.cls-1{fill:#27296f;}.cls-2{fill:#c03992;}.cls-3{fill:#63a5bc;}</style></defs><path class="cls-1" d="M989.8,415.69H933.89a129.43,129.43,0,0,1,28-80.68A129.69,129.69,0,0,1,989.8,415.69Z"/><circle class="cls-1" cx="961.84" cy="232.19" r="46.6"/><path class="cls-2" d="M961.87,335a129.43,129.43,0,0,0-28,80.68,74.66,74.66,0,0,0-74.57-74.57V285.21A130.08,130.08,0,0,1,961.87,335Z"/><path class="cls-3" d="M1064.37,285.21v55.91a74.66,74.66,0,0,0-74.57,74.57A129.69,129.69,0,0,0,961.87,335,129.9,129.9,0,0,1,1064.37,285.21Z"/><rect x="83.86" y="583.1" width="43.57" height="207.44"/><path d="M606.92,790.54V487.6h43.57V790.54Zm-145.8,0V623.17h-41V583.46h41V557.32c0-24.31,6.34-42.16,18.86-53,12.74-11.07,33.75-16.68,62.45-16.68h14.91v39.71H542.82c-7.6,0-13.65.79-18.49,2.4A25.81,25.81,0,0,0,505.93,551a96,96,0,0,0-1.24,16.38v16.09h51.1v39.71h-51.1V790.54Z"/><path d="M801.38,795.18a91.59,91.59,0,0,1-91.59-91.58V583.46H750.7V703.6a50.68,50.68,0,0,0,101.35,0V583.46H893V703.6a91.57,91.57,0,0,1-91.58,91.58Z"/><path d="M328.54,790.54V667.31a50.68,50.68,0,0,0-101.35,0V790.54H186.28V667.31a91.59,91.59,0,0,1,183.17,0V790.54Z"/><path d="M1345.66,790.54V667.31a50.68,50.68,0,0,0-101.35,0V790.54H1203.4V667.31a91.59,91.59,0,0,1,183.17,0V790.54Z"/><path d="M1744.41,893.89A91.53,91.53,0,0,1,1653,807.57h41a50.69,50.69,0,0,0,101.11-5.27V780.47l-7.74,4.1a91.62,91.62,0,0,1-134.54-81V583.44h40.89V703.6a50.7,50.7,0,0,0,101.39,0V583.44H1836V802.3a91.54,91.54,0,0,1-91.59,91.59Z"/><path d="M1536.08,790.52a103.71,103.71,0,1,1,69.55-180.71l-33.58,33.58a56.39,56.39,0,1,0,0,86.85l33.58,33.57A103.2,103.2,0,0,1,1536.08,790.52Z"/><path d="M1044.38,665.67c-31.72,0-50.09,17.45-50.09,49.12,0,15.92,11.13,42.85,52.85,42.85,15.38,0,40.71-4.63,46.77-6.74V654.21c0-25.07-17.37-37.78-51.62-37.78-30.82,0-70.39,12.53-70.71,12.64V590.62c1.46-.51,40.16-14.44,77.27-14.44,56.87,0,86.93,27.79,86.93,80.38V780.4a267.94,267.94,0,0,1-89.35,15.09c-83.08,0-98-42.17-98-66.68,0-58.25,73.47-69.41,95.94-69.83Z"/></svg>